<?xml version="1.0" encoding="UTF-8" standalone="no"?>
<svg
   xmlns:dc="http://purl.org/dc/elements/1.1/"
   xmlns:cc="http://creativecommons.org/ns#"
   xmlns:rdf="http://www.w3.org/1999/02/22-rdf-syntax-ns#"
   xmlns:svg="http://www.w3.org/2000/svg"
   xmlns="http://www.w3.org/2000/svg"
   xmlns:xlink="http://www.w3.org/1999/xlink"
   xmlns:sodipodi="http://sodipodi.sourceforge.net/DTD/sodipodi-0.dtd"
   xmlns:inkscape="http://www.inkscape.org/namespaces/inkscape"
   width="744.09448819"
   height="1052.3622047"
   version="1.1">
<defs>
  <g id="pindsvin"><g transform="translate(-550 -380)">
    <path
       style="fill:#dda259;fill-opacity:1;stroke:#000000;stroke-width:1px;stroke-linecap:butt;stroke-linejoin:miter;stroke-opacity:1"
       d="m 667.20576,425.18372 c -3.36701,-5.71947 -7.25134,-13.08063 -11.5138,-18.38496 -3.65691,-4.55077 -7.32382,-8.49862 -12.00419,-11.99177 -3.01881,-2.25306 -8.07723,-2.58128 -11.61761,-2.52423 -5.46182,0.088 -12.39953,1.85078 -17.41464,5.13952 -3.92332,2.57277 -9.97983,7.36647 -14.11983,11.72527"
       id="path5398"
       inkscape:connector-curvature="0"
       sodipodi:nodetypes="cssssc" />
    <path
       style="fill:#e59350;fill-opacity:1;stroke:#000000;stroke-width:1px;stroke-linecap:butt;stroke-linejoin:miter;stroke-opacity:1"
       d="m 619.90169,487.69601 c 4.06937,1.74148 9.36617,5.2414 13.54945,7.23743 4.11734,1.96456 6.56209,1.12384 8.85979,1.19902 2.10094,0.0687 7.49029,-2.61645 11.84283,-5.23785 4.71068,-2.8371 9.96581,-4.80992 10.42873,1.62476 0.30035,4.17486 -0.50658,3.53006 -5.89091,5.90095 -6.05073,2.66432 -12.18018,5.62158 -15.0928,6.28112 -4.46843,1.01183 -8.7372,-0.86964 -12.97791,-2.19581 -7.66255,-2.39625 -13.5326,-5.73901 -13.24456,-4.83433"
       id="path5328-5"
       inkscape:connector-curvature="0"
       sodipodi:nodetypes="csssssssc" />
    <path
       style="fill:none;stroke:#000000;stroke-width:0.99098063px;stroke-linecap:round;stroke-linejoin:miter;stroke-opacity:1"
       d="m 661.90421,495.47295 c 0.22973,-0.1791 0.49788,-0.26379 0.77758,-0.34402 0.73326,-0.21032 1.5096,-0.3046 2.27135,-0.27241 0.91664,0.0387 0.73445,0.0335 1.61124,0.13492 0.28431,0.0329 0.51432,0.11281 0.73363,0.16091"
       id="path5356-0"
       inkscape:connector-curvature="0"
       sodipodi:nodetypes="csssc" />
    <path
       style="fill:none;stroke:#000000;stroke-width:0.84424758px;stroke-linecap:round;stroke-linejoin:miter;stroke-opacity:1"
       d="m 661.16058,492.95533 c 0.72265,-0.68298 1.59849,-0.80457 2.4775,-0.99442 0.72541,-0.15673 1.40195,-0.12147 2.09021,-0.16604 1.05917,-0.0684 1.75593,0.21364 2.76734,0.7752"
       id="path5354-3"
       inkscape:connector-curvature="0"
       sodipodi:nodetypes="cssc" />
    <path
       style="fill:none;stroke:#000000;stroke-width:1px;stroke-linecap:round;stroke-linejoin:miter;stroke-opacity:1"
       d="m 659.48054,491.11928 c 0.70764,-0.7066 1.68183,-1.00013 2.59259,-1.33477 1.31471,-0.48306 2.10585,-0.64873 3.50915,-0.65257 1.04819,-0.003 1.49411,9.1e-4 2.48681,0.4282"
       id="path5352-8"
       inkscape:connector-curvature="0"
       sodipodi:nodetypes="cssc" />
    <path
       style="fill:#e3985a;stroke:#000000;stroke-width:1px;stroke-linecap:butt;stroke-linejoin:miter;stroke-opacity:1;fill-opacity:1"
       d="m 616.60714,565.04075 c 1.30858,-0.29088 0.83468,1.54844 1.16258,2.46596 2.75447,4.21797 2.94656,11.46586 3.0372,15.44271 0.44307,4.19446 -0.2639,5.52061 -0.48343,9.07791 -0.38374,1.74932 -0.57616,3.69239 -1.57343,5.15628 1.84679,-0.99558 3.61643,-1.77834 5.69198,-2.06282 2.1122,-0.28685 4.21613,-0.62037 6.35283,-0.61491 2.1487,-0.27527 4.21375,0.4251 6.00407,1.58998 1.68275,0.75822 3.64624,1.45973 4.12427,3.48289 0.18587,1.87258 0.41915,4.0732 -0.38663,5.7683 -1.41188,1.90212 -3.84659,2.23296 -6.04604,2.02575 -2.43879,0.2929 -4.89811,0.1222 -7.3476,0.16795 -1.713,0.74018 -3.87785,0.18609 -5.76594,0.53616 -2.05728,0.18973 -4.07684,0.53044 -6.22353,0.5355 -2.12347,0.41754 -4.38208,0.58322 -6.60222,0.52921 -2.19788,0.53015 -4.1914,-1.30132 -3.55713,-3.55184 0.4055,-1.88481 1.00892,-3.76537 1.49495,-5.65488 1.04025,-1.73619 3.12298,-3.89677 3.42077,-5.91363 0.6627,-4.48832 0.38441,-5.75126 0.0902,-8.23491 -0.43481,-3.6711 -0.31368,-6.45736 -0.66643,-9.43607 -0.35066,-2.96115 -1.04321,-8.2843 -1.63312,-9.7545"
       id="path4923"
       inkscape:connector-curvature="0"
       sodipodi:nodetypes="cccccccccccccccccsssc" />
    <path
       style="fill:#e3975a;fill-opacity:1;stroke:#000000;stroke-width:1px;stroke-linecap:butt;stroke-linejoin:miter;stroke-opacity:1"
       d="m 670.98214,427.80861 c -0.54488,-0.29831 -7.06606,-4.62788 -7.60005,-4.95114 -4.81925,-2.91738 -9.22795,-6.77475 -13.82565,-10.20153 -7.23131,-5.48544 -15.33105,-10.53667 -24.35089,-12.0858 -8.78113,-1.60014 -18.66199,2.15041 -24.75252,8.93666 -5.89073,6.56364 -12.67759,14.88761 -17.15789,23.99814 -5.72476,11.03802 -12.76354,29.79941 -16.26046,45.72987 -1.49642,6.81706 -2.25921,22.73308 -2.17678,29.79867 0.0807,6.91686 0.85322,16.42326 1.90437,23.90649 1.06612,7.5898 3.54096,15.65566 6.43183,22.72635 2.65651,6.49749 10.88286,12.33873 17.71167,15.19982 4.90399,2.05464 11.03508,1.69246 16.3412,1.67679 8.06547,-2.05675 14.88979,-6.8437 19.12642,-14.0644 3.97072,-4.88402 5.88144,-11.33968 8.01552,-17.64422 2.40944,-7.11801 2.05669,-32.81548 1.81013,-37.59263 -0.16229,-3.14447 -1.21737,-17.04216 -1.64076,-25.52705 -0.17466,-3.50037 -1.13467,-7.86524 5.79844,-15.35245"
       id="path4409"
       inkscape:connector-curvature="0"
       sodipodi:nodetypes="csccscsssssccsssc" />
    <path
       style="fill:#e3985a;stroke:#000000;stroke-width:1px;stroke-linecap:butt;stroke-linejoin:miter;stroke-opacity:1;fill-opacity:1"
       d="m 593.97493,568.1382 c 1.30858,-0.29088 1.10758,3.77339 1.43044,5.41239 0.97364,4.94271 -0.043,11.90899 -0.89186,15.44271 -0.98511,4.10114 -1.35728,7.14067 -2.537,9.61362 -0.77111,1.61641 -1.46902,3.78168 -2.46629,5.24557 1.84679,-0.99558 3.69416,-1.52449 5.78127,-1.70568 2.29059,-0.19885 4.04177,-0.21279 6.26354,-0.0792 2.16236,0.13003 3.4212,0.0196 6.00407,0.69713 1.78528,0.46829 3.64624,1.45973 4.12427,3.48289 0.18587,1.87258 0.41915,4.0732 -0.38663,5.7683 -1.41188,1.90212 -3.84659,2.23296 -6.04604,2.02575 -6.53735,-0.17587 -13.21041,1.15518 -19.33707,1.23961 -2.12347,0.41754 -4.38208,0.58322 -6.60222,0.52921 -2.19788,0.53015 -4.1914,-1.30132 -3.55713,-3.55184 0.4055,-1.88481 1.54463,-4.03323 2.03066,-5.92274 1.04025,-1.73619 2.2437,-3.71055 2.88506,-5.64577 1.23473,-3.72561 2.92611,-6.93664 3.30449,-9.48491 0.60116,-4.04874 1.96226,-7.95717 1.83357,-10.95393 -0.26138,-6.08615 -0.68607,-19.44501 -1.27598,-20.91521"
       id="path4923-9"
       inkscape:connector-curvature="0"
       sodipodi:nodetypes="cssscssscccccccsssc" />
    <path
       style="fill:#f8d7bb;fill-opacity:1;stroke:#000000;stroke-width:1px;stroke-linecap:butt;stroke-linejoin:miter;stroke-opacity:1"
       d="m 644.10871,457.93366 c -4.49101,4.00294 -7.41367,8.46843 -9.45711,13.98878 -1.98082,7.23428 0.32579,14.74688 0.74646,21.97158 1.77738,9.04062 0.871,18.54208 0.92597,27.64117 -0.25512,7.02036 -1.05807,14.78239 -2.87805,21.63305 -1.68778,9.624 -8.91087,19.28343 -15.45117,24.0375 -4.57955,3.82362 -13.38179,5.95784 -18.22528,1.8788 -3.3396,-5.998 -5.67149,-13.65436 -6.44796,-20.61095 -1.61241,-10.41211 0.58756,-21.30762 0.77317,-31.67333 1.32739,-9.08181 1.62311,-18.02292 3.46577,-27.10861 1.57022,-7.74231 3.35991,-15.47419 6.40277,-22.51843 3.92615,-9.08906 8.6959,-14.62889 16.76268,-20.50077 5.26478,-3.83228 13.21561,-6.27006 20.44788,-8.93517 6.58415,-2.42628 13.80076,-3.40191 20.79073,-3.32376 0.68168,0.0937 2.34815,-0.50068 3.89764,0.23727 -0.66128,0.84564 -7.61706,7.11625 -8.12664,8.08433 -4.27509,3.47088 -10.06604,11.39937 -13.62686,15.19854 z"
       id="path4949"
       inkscape:connector-curvature="0"
       sodipodi:nodetypes="cccccccccsssscccc" />
    <path
       sodipodi:type="arc"
       style="fill:#f18260;fill-opacity:1;stroke:#000000;stroke-width:1.30707206;stroke-miterlimit:4;stroke-opacity:1;stroke-dasharray:none"
       id="path4413"
       sodipodi:cx="670.35712"
       sodipodi:cy="431.29074"
       sodipodi:rx="7.1428571"
       sodipodi:ry="7.1428571"
       d="m 677.49997,431.29074 a 7.1428571,7.1428571 0 1 1 -14.28571,0 7.1428571,7.1428571 0 1 1 14.28571,0 z"
       transform="matrix(0.63427861,0.18998574,-0.26935194,0.84214913,358.82267,-60.171542)" />
    <path
       style="fill:none;stroke:#000000;stroke-width:1px;stroke-linecap:round;stroke-linejoin:miter;stroke-opacity:1"
       d="m 637.27998,598.42489 c 1.32203,-0.58528 3.17511,-1.38557 4.51148,-1.72292 0.97996,-0.24737 1.87191,-0.44249 2.80318,-0.31181 1.40996,0.19785 2.42683,1.04071 3.41823,2.03429"
       id="path4954"
       inkscape:connector-curvature="0"
       sodipodi:nodetypes="cssc" />
    <path
       style="fill:none;stroke:#000000;stroke-width:1px;stroke-linecap:round;stroke-linejoin:miter;stroke-opacity:1"
       d="m 638.29014,602.71803 c 0.78951,-0.67174 1.87773,-0.74092 2.82373,-1.09294 1.32449,-0.49286 2.779,-0.60352 4.19162,-0.55352 0.86282,0.0305 1.54851,0.57994 2.2732,0.99214 0.57083,0.32469 0.69385,0.38093 1.31839,1.03317"
       id="path4956"
       inkscape:connector-curvature="0"
       sodipodi:nodetypes="csssc" />
    <path
       style="fill:none;stroke:#000000;stroke-width:1px;stroke-linecap:round;stroke-linejoin:miter;stroke-opacity:1"
       d="m 638.54268,605.11715 c 1.01519,-0.39091 2.16497,-0.31723 3.21374,-0.4994 1.06999,-0.043 2.14245,-0.0416 3.18555,0.21899 0.96991,0.11169 2.03945,0.23882 2.71652,1.02804 0.52438,0.36049 0.89242,0.84831 1.36459,1.2727"
       id="path4958"
       inkscape:connector-curvature="0" />
    <path
       style="fill:none;stroke:#000000;stroke-width:1px;stroke-linecap:round;stroke-linejoin:miter;stroke-opacity:1"
       d="m 609.50079,606.00103 c 0.68252,-0.14813 1.22332,-0.62463 1.86959,-0.87904 0.96199,-0.3787 1.97606,-0.57402 2.98594,-0.74147 0.89574,-0.14852 1.81458,0.0153 2.72167,-0.0188 1.34912,-0.0508 1.79141,0.44253 2.14534,0.88233"
       id="path4960"
       inkscape:connector-curvature="0"
       sodipodi:nodetypes="csssc" />
    <path
       style="fill:none;stroke:#000000;stroke-width:1px;stroke-linecap:round;stroke-linejoin:miter;stroke-opacity:1"
       d="m 610.25841,609.03148 c 1.2329,-0.7507 2.65917,-0.98643 4.0392,-1.07338 1.43987,0.13693 2.61802,0.40815 3.94076,0.65026 0.22897,0.0871 0.84692,0.53604 1.45859,1.21249"
       id="path4962"
       inkscape:connector-curvature="0"
       sodipodi:nodetypes="cccc" />
    <path
       style="fill:none;stroke:#000000;stroke-width:1px;stroke-linecap:round;stroke-linejoin:miter;stroke-opacity:1"
       d="m 608.49064,611.8094 c 2.19661,-0.51931 3.35551,-0.75909 5.31449,-0.6576 1.27566,0.0661 1.51651,0.0564 2.47742,0.76946 0.91069,0.67582 0.89227,0.73151 1.4888,1.75049"
       id="path4964"
       inkscape:connector-curvature="0"
       sodipodi:nodetypes="cssc" />
    <path
       style="fill:#fcf5ef;fill-opacity:1;stroke:#000000;stroke-width:1px;stroke-linecap:butt;stroke-linejoin:miter;stroke-opacity:1"
       d="m 630.34375,446.625 c 0.62666,2.34036 2.56115,5.22323 3.71875,7.25 1.38421,1.92247 3.25602,3.38999 4.84375,4.78125 0.53599,0.49633 1.74921,1.42816 2.40625,1.75 -6.11636,-4.64697 -8.47803,-7.44249 -10.96875,-13.78125 z"
       id="path4997"
       inkscape:connector-curvature="0"
       sodipodi:nodetypes="cccccccc" />
    <path
       style="fill:#ffffff;stroke:#000000;stroke-width:1px;stroke-linecap:butt;stroke-linejoin:miter;stroke-opacity:1;fill-opacity:1"
       d="m 623.6945,417.26636 c 2.06346,-3.26486 5.6285,-3.67066 9.0925,-1.71137 3.36093,1.95383 3.42832,6.76106 0.81936,11.85189 -3.45074,4.72649 -9.01171,5.39351 -10.93371,1.60939 -1.31575,-3.75969 -0.5583,-8.75728 1.02185,-11.74991 z"
       id="path5519-1"
       inkscape:connector-curvature="0"
       sodipodi:nodetypes="ccccc" />
    <path
       sodipodi:type="arc"
       style="opacity:1;fill:#000000;fill-opacity:1;stroke:none"
       id="path5011"
       sodipodi:cx="630.90338"
       sodipodi:cy="426.6358"
       sodipodi:rx="2.841054"
       sodipodi:ry="4.987628"
       d="m 633.74444,426.6358 a 2.841054,4.987628 0 1 1 -5.68211,0 2.841054,4.987628 0 1 1 5.68211,0 z"
       transform="matrix(0.95793038,0.28700066,-0.28700066,0.95793038,149.3634,-164.89932)"
       inkscape:transform-center-y="0.74734758"
       inkscape:transform-center-x="-0.12424524" />
    <path
       style="fill:none;stroke:#000000;stroke-width:1px;stroke-linecap:round;stroke-linejoin:round;stroke-opacity:1"
       d="m 611.58423,409.27381 c 0,0 -8.10061,-6.1553 -12.50063,-7.26046 -5.38909,-1.35359 -14.96289,-0.94702 -14.96289,-0.94702"
       id="path5013"
       inkscape:connector-curvature="0"
       sodipodi:nodetypes="csc" />
    <path
       style="fill:none;stroke:#000000;stroke-width:1px;stroke-linecap:round;stroke-linejoin:round;stroke-opacity:1"
       d="m 614.51999,415.11082 c 0,0 -8.10061,-6.1553 -12.50063,-7.26046 -5.38909,-1.35359 -14.96289,-0.94702 -14.96289,-0.94702"
       id="path5013-3"
       inkscape:connector-curvature="0"
       sodipodi:nodetypes="csc" />
    <path
       style="fill:none;stroke:#000000;stroke-width:1px;stroke-linecap:round;stroke-linejoin:round;stroke-opacity:1"
       d="m 618.47118,409.37643 c 0,0 -6.57594,-7.76303 -10.63236,-9.79454 -4.96825,-2.48817 -14.40302,-4.16387 -14.40302,-4.16387"
       id="path5013-9"
       inkscape:connector-curvature="0"
       sodipodi:nodetypes="csc" />
    <path
       style="fill:none;stroke:#000000;stroke-width:1px;stroke-linecap:round;stroke-linejoin:round;stroke-opacity:1"
       d="m 606.30308,416.72354 c 0,0 -6.40418,-5.26244 -10.8042,-6.3676 -5.38909,-1.35359 -12.10575,-0.58988 -12.10575,-0.58988"
       id="path5013-37"
       inkscape:connector-curvature="0"
       sodipodi:nodetypes="csc" />
    <path
       style="fill:none;stroke:#000000;stroke-width:1px;stroke-linecap:round;stroke-linejoin:round;stroke-opacity:1"
       d="m 611.84765,421.95096 c 0,0 -8.9814,-4.77933 -13.50159,-5.16596 -5.53626,-0.47354 -14.92155,1.4602 -14.92155,1.4602"
       id="path5013-1"
       inkscape:connector-curvature="0"
       sodipodi:nodetypes="csc" />
    <path
       style="fill:none;stroke:#000000;stroke-width:1px;stroke-linecap:round;stroke-linejoin:round;stroke-opacity:1"
       d="m 609.27982,428.17967 c 0,0 -8.10061,-6.1553 -12.50063,-7.26046 -5.38909,-1.35359 -14.96289,-0.94702 -14.96289,-0.94702"
       id="path5013-8"
       inkscape:connector-curvature="0"
       sodipodi:nodetypes="csc" />
    <path
       style="fill:none;stroke:#000000;stroke-width:1px;stroke-linecap:round;stroke-linejoin:round;stroke-opacity:1"
       d="m 606.33447,428.43534 c 0,0 -8.78937,-5.12393 -13.29116,-5.68552 -5.51375,-0.68782 -14.96695,0.88062 -14.96695,0.88062"
       id="path5013-6"
       inkscape:connector-curvature="0"
       sodipodi:nodetypes="csc" />
    <path
       style="fill:none;stroke:#000000;stroke-width:1px;stroke-linecap:round;stroke-linejoin:round;stroke-opacity:1"
       d="m 600.94606,435.81895 c 0,0 -8.10061,-6.1553 -12.50063,-7.26046 -5.38909,-1.35359 -14.96289,-0.94702 -14.96289,-0.94702"
       id="path5013-2"
       inkscape:connector-curvature="0"
       sodipodi:nodetypes="csc" />
    <path
       style="fill:none;stroke:#000000;stroke-width:1px;stroke-linecap:round;stroke-linejoin:round;stroke-opacity:1"
       d="m 598.17487,440.79738 c 0,0 -9.05428,-4.63978 -13.57991,-4.95641 -5.54293,-0.38782 -14.89717,1.69092 -14.89717,1.69092"
       id="path5013-7"
       inkscape:connector-curvature="0"
       sodipodi:nodetypes="csc" />
    <path
       style="fill:none;stroke:#000000;stroke-width:1px;stroke-linecap:round;stroke-linejoin:round;stroke-opacity:1"
       d="m 595.57963,448.31958 c 0,0 -8.10061,-6.1553 -12.50063,-7.26046 -5.38909,-1.35359 -14.96289,-0.94702 -14.96289,-0.94702"
       id="path5013-0"
       inkscape:connector-curvature="0"
       sodipodi:nodetypes="csc" />
    <path
       style="fill:none;stroke:#000000;stroke-width:1px;stroke-linecap:round;stroke-linejoin:round;stroke-opacity:1"
       d="m 594.0644,454.1911 c 0,0 -8.10061,-6.1553 -12.50063,-7.26046 -5.38909,-1.35359 -14.96289,-0.94702 -14.96289,-0.94702"
       id="path5013-14"
       inkscape:connector-curvature="0"
       sodipodi:nodetypes="csc" />
    <path
       style="fill:none;stroke:#000000;stroke-width:1px;stroke-linecap:round;stroke-linejoin:round;stroke-opacity:1"
       d="m 595.51748,460.69098 c 0,0 -8.10061,-6.1553 -12.50063,-7.26046 -5.38909,-1.35359 -14.96289,-0.94702 -14.96289,-0.94702"
       id="path5013-18"
       inkscape:connector-curvature="0"
       sodipodi:nodetypes="csc" />
    <path
       style="fill:none;stroke:#000000;stroke-width:1px;stroke-linecap:round;stroke-linejoin:round;stroke-opacity:1"
       d="m 589.98176,465.51241 c 0,0 -8.10061,-6.1553 -12.50063,-7.26046 -5.38909,-1.35359 -14.96289,-0.94702 -14.96289,-0.94702"
       id="path5013-00"
       inkscape:connector-curvature="0"
       sodipodi:nodetypes="csc" />
    <path
       style="fill:none;stroke:#000000;stroke-width:1px;stroke-linecap:round;stroke-linejoin:round;stroke-opacity:1"
       d="m 585.90464,467.37094 c 0,0 -10.01098,-5.44018 -14.50961,-6.02658 -5.50987,-0.71821 -13.72157,1.06593 -13.72157,1.06593"
       id="path5013-99"
       inkscape:connector-curvature="0"
       sodipodi:nodetypes="csc" />
    <path
       style="fill:none;stroke:#000000;stroke-width:1px;stroke-linecap:round;stroke-linejoin:round;stroke-opacity:1"
       d="m 586.88345,469.56783 c 0,0 -10.01098,-5.44018 -14.50961,-6.02658 -5.50987,-0.71821 -13.72157,1.06593 -13.72157,1.06593"
       id="path5013-99-5"
       inkscape:connector-curvature="0"
       sodipodi:nodetypes="csc" />
    <path
       style="fill:none;stroke:#000000;stroke-width:1px;stroke-linecap:round;stroke-linejoin:round;stroke-opacity:1"
       d="m 584.82988,476.08568 c 0,0 -10.01098,-5.44018 -14.50961,-6.02658 -5.50987,-0.71821 -13.72157,1.06593 -13.72157,1.06593"
       id="path5013-99-3"
       inkscape:connector-curvature="0"
       sodipodi:nodetypes="csc" />
    <path
       style="fill:none;stroke:#000000;stroke-width:1px;stroke-linecap:round;stroke-linejoin:round;stroke-opacity:1"
       d="m 581.70488,483.04997 c 0,0 -10.01098,-5.44018 -14.50961,-6.02658 -5.50987,-0.71821 -13.72157,1.06593 -13.72157,1.06593"
       id="path5013-99-2"
       inkscape:connector-curvature="0"
       sodipodi:nodetypes="csc" />
    <path
       style="fill:none;stroke:#000000;stroke-width:1px;stroke-linecap:round;stroke-linejoin:round;stroke-opacity:1"
       d="m 578.40131,494.38926 c 0,0 -10.01098,-5.44018 -14.50961,-6.02658 -5.50987,-0.71821 -13.72157,1.06593 -13.72157,1.06593"
       id="path5013-99-1"
       inkscape:connector-curvature="0"
       sodipodi:nodetypes="csc" />
    <path
       style="fill:none;stroke:#000000;stroke-width:1px;stroke-linecap:round;stroke-linejoin:round;stroke-opacity:1"
       d="m 578.22273,506.79997 c 0,0 -10.01098,-5.44018 -14.50961,-6.02658 -5.50987,-0.71821 -13.72157,1.06593 -13.72157,1.06593"
       id="path5013-99-9"
       inkscape:connector-curvature="0"
       sodipodi:nodetypes="csc" />
    <path
       style="fill:none;stroke:#000000;stroke-width:1px;stroke-linecap:round;stroke-linejoin:round;stroke-opacity:1"
       d="m 583.66916,511.35354 c 0,0 -10.01098,-5.44018 -14.50961,-6.02658 -5.50987,-0.71821 -13.72157,1.06593 -13.72157,1.06593"
       id="path5013-99-4"
       inkscape:connector-curvature="0"
       sodipodi:nodetypes="csc" />
    <path
       style="fill:none;stroke:#000000;stroke-width:1px;stroke-linecap:round;stroke-linejoin:round;stroke-opacity:1"
       d="m 583.57987,498.85354 c 0,0 -10.01098,-5.44018 -14.50961,-6.02658 -5.50987,-0.71821 -13.72157,1.06593 -13.72157,1.06593"
       id="path5013-99-8"
       inkscape:connector-curvature="0"
       sodipodi:nodetypes="csc" />
    <path
       style="fill:none;stroke:#000000;stroke-width:1px;stroke-linecap:round;stroke-linejoin:round;stroke-opacity:1"
       d="m 581.34773,516.97854 c 0,0 -10.01098,-5.44018 -14.50961,-6.02658 -5.50987,-0.71821 -13.72157,1.06593 -13.72157,1.06593"
       id="path5013-99-46"
       inkscape:connector-curvature="0"
       sodipodi:nodetypes="csc" />
    <path
       style="fill:none;stroke:#000000;stroke-width:1px;stroke-linecap:round;stroke-linejoin:round;stroke-opacity:1"
       d="m 582.38512,540.53309 c 0,0 -12.81747,-1.0433 -19.05983,1.89512 -5.02734,2.36648 -11.93743,9.47312 -11.93743,9.47312"
       id="path5013-99-95"
       inkscape:connector-curvature="0"
       sodipodi:nodetypes="csc"
       inkscape:transform-center-x="-3.75"
       inkscape:transform-center-y="-1.0714286" />
    <path
       style="fill:none;stroke:#000000;stroke-width:1px;stroke-linecap:round;stroke-linejoin:round;stroke-opacity:1"
       d="m 582.46292,532.12515 c 0,0 -12.81747,-1.0433 -19.05983,1.89512 -5.02734,2.36648 -11.93743,9.47312 -11.93743,9.47312"
       id="path5013-99-95-1"
       inkscape:connector-curvature="0"
       sodipodi:nodetypes="csc"
       inkscape:transform-center-x="-3.75"
       inkscape:transform-center-y="-1.0714286" />
    <path
       style="fill:none;stroke:#000000;stroke-width:1px;stroke-linecap:round;stroke-linejoin:round;stroke-opacity:1"
       d="m 579.07006,525.69658 c 0,0 -12.81747,-1.0433 -19.05983,1.89512 -5.02734,2.36648 -11.93743,9.47312 -11.93743,9.47312"
       id="path5013-99-95-3"
       inkscape:connector-curvature="0"
       sodipodi:nodetypes="csc"
       inkscape:transform-center-x="-3.75"
       inkscape:transform-center-y="-1.0714286" />
    <path
       style="fill:none;stroke:#000000;stroke-width:1px;stroke-linecap:round;stroke-linejoin:round;stroke-opacity:1"
       d="m 576.9272,521.05372 c 0,0 -12.81747,-1.0433 -19.05983,1.89512 -5.02734,2.36648 -11.93743,9.47312 -11.93743,9.47312"
       id="path5013-99-95-2"
       inkscape:connector-curvature="0"
       sodipodi:nodetypes="csc"
       inkscape:transform-center-x="-3.75"
       inkscape:transform-center-y="-1.0714286" />
    <path
       style="fill:none;stroke:#000000;stroke-width:1px;stroke-linecap:round;stroke-linejoin:round;stroke-opacity:1"
       d="m 579.47843,537.64885 c 0,0 -12.85844,-0.19087 -18.89216,3.15511 -4.85931,2.69472 -11.28283,10.24403 -11.28283,10.24403"
       id="path5013-99-95-4"
       inkscape:connector-curvature="0"
       sodipodi:nodetypes="csc"
       inkscape:transform-center-x="-3.676645"
       inkscape:transform-center-y="-1.2290434" />
    <path
       style="fill:none;stroke:#000000;stroke-width:1px;stroke-linecap:round;stroke-linejoin:round;stroke-opacity:1"
       d="m 584.60577,548.01801 c 0,0 -12.81747,-1.0433 -19.05983,1.89512 -5.02734,2.36648 -11.93743,9.47312 -11.93743,9.47312"
       id="path5013-99-95-6"
       inkscape:connector-curvature="0"
       sodipodi:nodetypes="csc"
       inkscape:transform-center-x="-3.75"
       inkscape:transform-center-y="-1.0714286" />
    <path
       style="fill:none;stroke:#000000;stroke-width:1px;stroke-linecap:round;stroke-linejoin:round;stroke-opacity:1"
       d="m 587.5563,552.29831 c 0,0 -12.8564,0.29815 -18.75854,3.87112 -4.75335,2.87752 -10.88519,10.6656 -10.88519,10.6656"
       id="path5013-99-95-13"
       inkscape:connector-curvature="0"
       sodipodi:nodetypes="csc"
       inkscape:transform-center-x="-3.627295"
       inkscape:transform-center-y="-1.3669426" />
    <path
       style="fill:none;stroke:#000000;stroke-width:1px;stroke-linecap:round;stroke-linejoin:round;stroke-opacity:1"
       d="m 578.4056,517.80858 c 0,0 -11.79303,-5.1284 -18.64996,-4.36434 -5.5223,0.61534 -14.35782,5.10836 -14.35782,5.10836"
       id="path5013-99-95-5"
       inkscape:connector-curvature="0"
       sodipodi:nodetypes="csc"
       inkscape:transform-center-x="-3.86599"
       inkscape:transform-center-y="-1.9382828" />
    <path
       style="fill:none;stroke:#000000;stroke-width:0.93348098px;stroke-linecap:round;stroke-linejoin:round;stroke-opacity:1"
       d="m 620.75683,407.54052 c 0,0 -0.40686,-7.21418 -2.54542,-10.70061 -2.61928,-4.27015 -7.69863,-8.15705 -7.69863,-8.15705"
       id="path5013-37-5"
       inkscape:connector-curvature="0"
       sodipodi:nodetypes="csc" />
    <path
       style="fill:none;stroke:#000000;stroke-width:0.86778718px;stroke-linecap:round;stroke-linejoin:round;stroke-opacity:1"
       d="m 617.81667,406.70604 c 0,0 -1.45832,-6.58829 -3.89352,-9.28783 -2.98261,-3.30639 -8.09914,-5.64373 -8.09914,-5.64373"
       id="path5013-37-3"
       inkscape:connector-curvature="0"
       sodipodi:nodetypes="csc" />
    <path
       style="fill:none;stroke:#000000;stroke-width:1px;stroke-linecap:round;stroke-linejoin:round;stroke-opacity:1"
       d="m 589.27751,556.12272 c 0,0 -12.74263,1.7324 -18.20871,5.94231 -4.40217,3.39048 -9.62567,11.81477 -9.62567,11.81477"
       id="path5013-99-95-13-6"
       inkscape:connector-curvature="0"
       sodipodi:nodetypes="csc"
       inkscape:transform-center-x="-3.4519"
       inkscape:transform-center-y="-1.7635726" />
    <path
       style="fill:none;stroke:#000000;stroke-width:1px;stroke-linecap:round;stroke-linejoin:round;stroke-opacity:1"
       d="m 590.32719,558.88092 c 0,0 -12.07027,4.43676 -16.50111,9.72533 -3.56844,4.25919 -6.85454,13.61094 -6.85454,13.61094"
       id="path5013-99-95-13-62"
       inkscape:connector-curvature="0"
       sodipodi:nodetypes="csc"
       inkscape:transform-center-x="-2.990945"
       inkscape:transform-center-y="-2.4657776" />
    <path
       style="fill:none;stroke:#000000;stroke-width:1px;stroke-linecap:round;stroke-linejoin:round;stroke-opacity:1"
       d="m 578.46818,500.63972 c 0,0 -11.79303,-5.1284 -18.64996,-4.36434 -5.5223,0.61534 -14.35782,5.10836 -14.35782,5.10836"
       id="path5013-99-95-5-6"
       inkscape:connector-curvature="0"
       sodipodi:nodetypes="csc"
       inkscape:transform-center-x="-3.86599"
       inkscape:transform-center-y="-1.9382828" />
    <path
       style="fill:none;stroke:#000000;stroke-width:1px;stroke-linecap:round;stroke-linejoin:round;stroke-opacity:1"
       d="m 583.28362,489.4485 c 0,0 -10.96758,-6.71478 -17.86421,-6.90932 -5.55426,-0.15668 -14.92764,3.06721 -14.92764,3.06721"
       id="path5013-99-95-5-5"
       inkscape:connector-curvature="0"
       sodipodi:nodetypes="csc"
       inkscape:transform-center-x="-3.789395"
       inkscape:transform-center-y="-0.72010822" />
    <path
       style="fill:none;stroke:#000000;stroke-width:0.93348098px;stroke-linecap:round;stroke-linejoin:round;stroke-opacity:1"
       d="m 629.78745,404.23999 c 0,0 0.0594,-7.2254 -1.84974,-10.84254 -2.33832,-4.43025 -7.15631,-8.63676 -7.15631,-8.63676"
       id="path5013-37-5-0"
       inkscape:connector-curvature="0"
       sodipodi:nodetypes="csc" />
    <path
       style="fill:none;stroke:#000000;stroke-width:0.93348098px;stroke-linecap:round;stroke-linejoin:round;stroke-opacity:1"
       d="m 640.25544,403.67663 c 0,0 -0.40686,-7.21418 -2.54542,-10.70061 -2.61928,-4.27015 -7.69863,-8.15705 -7.69863,-8.15705"
       id="path5013-37-5-8"
       inkscape:connector-curvature="0"
       sodipodi:nodetypes="csc" />
    <path
       style="fill:none;stroke:#000000;stroke-width:0.93348098px;stroke-linecap:round;stroke-linejoin:round;stroke-opacity:1"
       d="m 648.84041,406.96611 c 0,0 0.89007,-7.17061 -0.5904,-10.98333 -1.81326,-4.66979 -6.11547,-9.40253 -6.11547,-9.40253"
       id="path5013-37-5-9"
       inkscape:connector-curvature="0"
       sodipodi:nodetypes="csc" />
    <path
       style="fill:none;stroke:#000000;stroke-width:0.93348098px;stroke-linecap:round;stroke-linejoin:round;stroke-opacity:1"
       d="m 637.52649,408.68415 c 0,0 0.31122,-7.21894 -1.47073,-10.90041 -2.1825,-4.50905 -6.85096,-8.88092 -6.85096,-8.88092"
       id="path5013-37-5-86"
       inkscape:connector-curvature="0"
       sodipodi:nodetypes="csc" />
    <path
       style="fill:none;stroke:#000000;stroke-width:0.93348098px;stroke-linecap:round;stroke-linejoin:round;stroke-opacity:1"
       d="m 626.61838,403.8029 c 0,0 -0.40686,-7.21418 -2.54542,-10.70061 -2.61928,-4.27015 -7.69863,-8.15705 -7.69863,-8.15705"
       id="path5013-37-5-83"
       inkscape:connector-curvature="0"
       sodipodi:nodetypes="csc" />
    <path
       style="fill:none;stroke:#711d1d;stroke-width:2;stroke-linecap:round;stroke-linejoin:miter;stroke-opacity:1;stroke-miterlimit:4;stroke-dasharray:none"
       d="m 620.23366,411.92547 c 0.0708,-1.12265 0.88326,-1.98695 1.67938,-2.70465 0.60198,-0.54268 1.23814,-1.04081 1.96228,-1.41725 2.66528,-1.16143 3.67101,-1.6882 6.20394,-1.27734 1.08271,0.17563 3.33384,1.38695 3.69689,1.51673"
       id="path5450"
       inkscape:connector-curvature="0"
       sodipodi:nodetypes="cscsc" />
  </g>
  </g>

  <g id="pindsvin-open-mouth" transform="translate(-550 -380)">
    <path
       style="fill:#fcf5ef;fill-opacity:1;stroke:#000000;stroke-width:1px;stroke-linecap:butt;stroke-linejoin:miter;stroke-opacity:1"
       d="m 647.63405,453.46799 c -1.66912,-0.0576 -3.03729,-1.1498 -4.59039,-1.62252 -1.76199,-0.71356 -3.66579,-1.11218 -5.27686,-2.16478 -2.94126,-0.55611 -4.87555,-1.61329 -7.41853,-3.05989 0.62666,2.34036 2.55884,5.22217 3.71644,7.24894 1.38421,1.92247 3.24501,3.39614 4.83274,4.7874 0.53599,0.49633 1.76611,1.43382 2.42315,1.75566 z"
       id="path4997"
       inkscape:connector-curvature="0"
       sodipodi:nodetypes="cccccccc" />
  </g>

  <g id="pindsvin-above"><g transform="translate(-550 -380)">
    <path
       style="fill:none;stroke:#000000;stroke-width:0.96851254px;stroke-linecap:round;stroke-linejoin:miter;stroke-opacity:1"
       d="m 653.39125,475.9639 c 0.57607,-0.7707 1.45052,-1.15794 2.26081,-1.57971 1.16968,-0.60883 2.13769,-0.68577 3.42053,-0.98079 1.78846,-0.4114 2.23058,0.0161 3.11681,0.13435"
       id="path5352"
       inkscape:connector-curvature="0"
       sodipodi:nodetypes="cssc" />
    <path
       style="fill:none;stroke:#000000;stroke-width:0.90706229px;stroke-linecap:round;stroke-linejoin:miter;stroke-opacity:1"
       d="m 655.28753,477.68392 c 0.64389,-0.83725 1.52196,-1.06409 2.39382,-1.36745 0.7195,-0.25038 1.41564,-0.28149 2.11269,-0.40291 1.07273,-0.18666 1.9811,0.22495 2.93474,0.5767"
       id="path5354"
       inkscape:connector-curvature="0"
       sodipodi:nodetypes="cssc" />
    <path
       style="fill:none;stroke:#000000;stroke-width:1px;stroke-linecap:round;stroke-linejoin:miter;stroke-opacity:1"
       d="m 656.29018,480.01666 c 0.21252,-0.2049 0.47433,-0.32043 0.74831,-0.43287 0.71829,-0.29478 1.49298,-0.47924 2.2669,-0.53626 0.93129,-0.0686 0.74646,-0.0526 1.64438,-0.0542 0.29117,-4.8e-4 0.53261,0.052 0.75972,0.0742"
       id="path5356"
       inkscape:connector-curvature="0"
       sodipodi:nodetypes="csssc" />
    <path
       style="fill:#e59350;fill-opacity:1;stroke:#000000;stroke-width:1px;stroke-linecap:butt;stroke-linejoin:miter;stroke-opacity:1"
       d="m 607.88917,479.75331 c 0.48758,-0.79973 2.14864,-1.49471 4.11083,-1.80026 3.94001,-0.61354 11.28102,4.95984 15.26044,4.38136 3.23687,-0.20947 9.14595,-1.36982 11.12011,-2.19454 2.06529,-0.86278 4.25703,-2.32556 8.52904,-4.40665 4.94366,-2.40828 9.587,-4.80992 10.9338,1.37222 0.89096,4.08973 -0.25917,3.42262 -5.48147,6.13182 -5.84151,3.03044 -9.81732,5.39687 -11.4997,5.94193 -1.34764,0.43662 -5.97191,1.23182 -9.94547,1.40538 -6.64083,0.29007 -17.76138,-0.15162 -22.65698,-4.25858 -1.7009,-1.42689 -1.65495,-4.46611 -0.3706,-6.57268 z"
       id="path5328"
       inkscape:connector-curvature="0"
       sodipodi:nodetypes="sscssssssss" />
    </g></g>

      <g id="speech-bubble1">
        <path stroke="black" stroke-width="0.03" fill="none"
              d="M0.035,0.5 Q0.035,0.035 0.5,0.035 Q1,0.035 1,0.5 Q1,1 0.5,1 Q0.4,1 0.3,0.95 Q0.2,1.2 0.1,1.2 Q0.2,1.1 0.2,0.875 Q0.035,0.75 0.035,0.5"
              />
      </g>

      <g id="speech-bubble2">
        <path stroke="black" stroke-width="0.03" fill="none"
              d="M0.035,0.5 Q0.035,0.035 0.5,0.035 Q1,0.035 1,0.5 Q1,1 0.5,1 Q0.4,1 0.3,0.95 L0.2,1.2 L0.2,0.875 Q0.035,0.75 0.035,0.5"
              />
      </g>

</defs>
  <path fill="blue" d="M 0,0 L100,0 L100,200 L0,200 L0,0"/>
  <use xlink:href="#pindsvin" x="0" y="0"/>
  <use xlink:href="#pindsvin-above" x="0" y="0"/>
  <use xlink:href="#pindsvin-open-mouth" x="0" y="0"/>
</svg>
